<svg xmlns="http://www.w3.org/2000/svg" viewBox="0 0 400 250" role="img" aria-label="Logs and playbooks retrieved into a report where every claim carries a citation">
  <rect width="400" height="250" fill="#EDECE7"/>
  <g font-family="ui-monospace,SFMono-Regular,Menlo,monospace" font-size="8.5" fill="#86868C" letter-spacing=".08em">
    <text x="16" y="22">SOURCES</text>
    <text x="222" y="22">INCIDENT REPORT</text>
  </g>
  <line x1="16" y1="30" x2="384" y2="30" stroke="#C6C5BE"/>

  <g font-family="ui-monospace,SFMono-Regular,Menlo,monospace" font-size="7">
    <rect x="16" y="44" width="118" height="46" fill="none" stroke="#111112" stroke-width="1.1" rx="3"/>
    <text x="26" y="58" fill="#86868C">RAW LOGS</text>
    <text x="26" y="72" fill="#46464A">cloudtrail.json</text>
    <text x="26" y="84" fill="#46464A">auth.log</text>

    <rect x="16" y="102" width="118" height="46" fill="none" stroke="#111112" stroke-width="1.1" rx="3"/>
    <text x="26" y="116" fill="#86868C">PLAYBOOKS</text>
    <text x="26" y="130" fill="#46464A">ir-credential.md</text>
    <text x="26" y="142" fill="#46464A">ir-exfil.md</text>
  </g>

  <g stroke="#111112" stroke-width="1" stroke-dasharray="3 3" fill="none">
    <path d="M134 67H148V96H153"/>
    <path d="M134 125H148V96H153"/>
    <path d="M175 96H222"/>
  </g>
  <circle cx="164" cy="96" r="10" fill="#E4E3DD" stroke="#C2341D" stroke-width="1.3"/>
  <text x="164" y="99" text-anchor="middle" font-family="ui-monospace,SFMono-Regular,Menlo,monospace" font-size="7" fill="#C2341D">RAG</text>

  <rect x="222" y="44" width="162" height="150" fill="#E4E3DD" stroke="#C6C5BE" rx="3"/>
  <g font-family="ui-monospace,SFMono-Regular,Menlo,monospace" font-size="6.5" fill="#46464A">
    <text x="232" y="60">Access key AKIA&#8230;7F used from</text>
    <text x="232" y="70">an unseen ASN at 02:14 UTC.</text>
    <text x="232" y="86">Role assumed 4&#215; in 90 seconds,</text>
    <text x="232" y="96">matching credential-chain TTP.</text>
    <text x="232" y="112">S3 listing across 3 buckets not</text>
    <text x="232" y="122">touched in the prior 30 days.</text>
    <text x="232" y="138">Recommend key revocation and</text>
    <text x="232" y="148">session invalidation.</text>
  </g>
  <g font-family="ui-monospace,SFMono-Regular,Menlo,monospace" font-size="6" fill="#C2341D">
    <text x="366" y="60">[1]</text><text x="366" y="86">[2]</text><text x="366" y="112">[1]</text><text x="366" y="138">[3]</text>
  </g>
  <line x1="232" y1="164" x2="374" y2="164" stroke="#C6C5BE"/>
  <g font-family="ui-monospace,SFMono-Regular,Menlo,monospace" font-size="6" fill="#86868C">
    <text x="232" y="176">[1] cloudtrail.json:4471</text>
    <text x="232" y="186">[2] ir-credential.md &#167;3</text>
  </g>

  <line x1="16" y1="206" x2="384" y2="206" stroke="#C6C5BE"/>
  <g font-family="ui-monospace,SFMono-Regular,Menlo,monospace" font-size="7.5">
    <text x="16" y="222" fill="#86868C">EVERY CLAIM BINDS TO A SOURCE</text>
    <text x="16" y="238" fill="#111112">no citation &#8594; no sentence</text>
  </g>
</svg>
